<svg width="36" height="36" viewBox="0 0 36 36" fill="none" xmlns="http://www.w3.org/2000/svg">
<g clip-path="url(#clip0_250_4390)">
<path d="M15.0973 10.3061L21.8532 17.042C21.9334 17.1222 21.9903 17.209 22.024 17.3026C22.0577 17.3961 22.0743 17.4964 22.0737 17.6033C22.0737 17.7102 22.0571 17.8104 22.024 17.904C21.9909 17.9976 21.9339 18.0844 21.8532 18.1646L15.0973 24.9205C14.9102 25.1076 14.6763 25.2012 14.3957 25.2012C14.115 25.2012 13.8744 25.1009 13.674 24.9005C13.4735 24.7 13.3732 24.4661 13.3732 24.1988C13.3732 23.9315 13.4735 23.6976 13.674 23.4972L19.5678 17.6033L13.674 11.7094C13.4868 11.5223 13.3933 11.2916 13.3933 11.0174C13.3933 10.7432 13.4935 10.5061 13.694 10.3061C13.8945 10.1057 14.1284 10.0054 14.3957 10.0054C14.6629 10.0054 14.8968 10.1057 15.0973 10.3061Z" fill="#27bba2"/>
</g>
<circle cx="17.6415" cy="17.6415" r="17.2406" stroke="#27BBA2" stroke-width="0.801887"/>
<defs>
<clipPath id="clip0_250_4390">
<rect width="19.2453" height="19.2453" fill="white" transform="translate(8 8)"/>
</clipPath>
</defs>
</svg>
