<svg width="24" height="24" viewBox="0 0 24 24" fill="none" xmlns="http://www.w3.org/2000/svg">
<rect width="24" height="24" rx="12" fill="#23A370"/>
<path d="M15.279 5.08887H8.89988C7.91329 5.08992 6.96741 5.48231 6.26978 6.17994C5.57216 6.87756 5.17977 7.82344 5.17871 8.81004V15.1892C5.17977 16.1758 5.57216 17.1217 6.26978 17.8193C6.96741 18.5169 7.91329 18.9093 8.89988 18.9103H15.279C16.2656 18.9093 17.2115 18.5169 17.9091 17.8193C18.6067 17.1217 18.9991 16.1758 19.0002 15.1892V8.81004C18.9991 7.82344 18.6067 6.87756 17.9091 6.17994C17.2115 5.48231 16.2656 5.08992 15.279 5.08887ZM12.0895 15.1892C11.4586 15.1892 10.8419 15.0021 10.3174 14.6516C9.7929 14.3012 9.38408 13.803 9.14267 13.2202C8.90126 12.6374 8.8381 11.9961 8.96117 11.3774C9.08424 10.7586 9.38801 10.1903 9.83408 9.74424C10.2802 9.29817 10.8485 8.99439 11.4672 8.87132C12.0859 8.74825 12.7272 8.81142 13.31 9.05283C13.8929 9.29424 14.391 9.70305 14.7415 10.2276C15.092 10.7521 15.279 11.3688 15.279 11.9996C15.2781 12.8453 14.9418 13.656 14.3438 14.254C13.7459 14.852 12.9351 15.1883 12.0895 15.1892ZM16.0764 8.81004C15.9187 8.81004 15.7645 8.76327 15.6334 8.67565C15.5023 8.58803 15.4001 8.4635 15.3397 8.31779C15.2794 8.17209 15.2636 8.01176 15.2943 7.85708C15.3251 7.7024 15.4011 7.56032 15.5126 7.4488C15.6241 7.33728 15.7662 7.26134 15.9209 7.23057C16.0755 7.1998 16.2359 7.21559 16.3816 7.27595C16.5273 7.3363 16.6518 7.4385 16.7394 7.56963C16.827 7.70076 16.8738 7.85493 16.8738 8.01264C16.8738 8.22412 16.7898 8.42694 16.6403 8.57648C16.4907 8.72602 16.2879 8.81004 16.0764 8.81004ZM14.2158 11.9996C14.2158 12.4202 14.0911 12.8313 13.8575 13.181C13.6238 13.5306 13.2917 13.8032 12.9032 13.9641C12.5146 14.1251 12.0871 14.1672 11.6746 14.0851C11.2621 14.0031 10.8833 13.8006 10.5859 13.5032C10.2885 13.2058 10.086 12.8269 10.0039 12.4144C9.92188 12.002 9.96399 11.5744 10.1249 11.1859C10.2859 10.7973 10.5584 10.4652 10.9081 10.2316C11.2578 9.99794 11.6689 9.87323 12.0895 9.87323C12.6534 9.87323 13.1943 10.0973 13.593 10.496C13.9918 10.8948 14.2158 11.4357 14.2158 11.9996Z" fill="#FBFBFB"/>
</svg>
