<svg width="38" height="38" viewBox="0 0 38 38" fill="none" xmlns="http://www.w3.org/2000/svg">
<rect width="38" height="38" rx="4" fill="#00FFCC" fill-opacity="0.5"/>
<path opacity="0.7" d="M23.1563 21.375H22.2181L21.8856 21.0544C23.0896 19.6579 23.7513 17.8751 23.75 16.0313C23.75 14.5046 23.2973 13.0123 22.4492 11.7429C21.601 10.4736 20.3955 9.48427 18.9851 8.90006C17.5747 8.31584 16.0227 8.16299 14.5254 8.46082C13.0281 8.75865 11.6528 9.49379 10.5733 10.5733C9.49379 11.6528 8.75865 13.0281 8.46082 14.5254C8.16299 16.0227 8.31584 17.5747 8.90006 18.9851C9.48427 20.3955 10.4736 21.601 11.7429 22.4492C13.0123 23.2973 14.5046 23.75 16.0313 23.75C17.9431 23.75 19.7006 23.0494 21.0544 21.8856L21.375 22.2181V23.1563L27.3125 29.0819L29.0819 27.3125L23.1563 21.375ZM16.0313 21.375C13.0744 21.375 10.6875 18.9881 10.6875 16.0313C10.6875 13.0744 13.0744 10.6875 16.0313 10.6875C18.9881 10.6875 21.375 13.0744 21.375 16.0313C21.375 18.9881 18.9881 21.375 16.0313 21.375Z" fill="#FAFAFA"/>
</svg>
