<svg width="24" height="24" viewBox="0 0 24 24" fill="none" xmlns="http://www.w3.org/2000/svg">
<rect width="24" height="24" rx="12" fill="#23A370"/>
<path d="M20.1239 7.74767C19.5781 7.99574 18.9898 8.15877 18.3802 8.23673C19.004 7.86107 19.486 7.26569 19.7128 6.5498C19.1245 6.9042 18.4724 7.15228 17.7848 7.29404C17.2249 6.68448 16.4381 6.33008 15.5451 6.33008C13.8794 6.33008 12.5185 7.69096 12.5185 9.3708C12.5185 9.61179 12.5469 9.8457 12.5965 10.0654C10.0732 9.93784 7.82629 8.7258 6.33074 6.89003C6.06848 7.33657 5.91964 7.86107 5.91964 8.41393C5.91964 9.47004 6.45123 10.4056 7.27343 10.9372C6.77019 10.9372 6.30239 10.7955 5.89129 10.5828V10.6041C5.89129 12.0784 6.9403 13.3117 8.32954 13.5881C7.88351 13.7102 7.41526 13.7272 6.96156 13.6377C7.15408 14.242 7.53111 14.7707 8.03965 15.1496C8.5482 15.5284 9.16269 15.7384 9.79674 15.75C8.72195 16.6008 7.38967 17.0607 6.01887 17.0541C5.77788 17.0541 5.53689 17.04 5.2959 17.0116C6.64261 17.8763 8.24448 18.3796 9.95976 18.3796C15.5451 18.3796 18.6141 13.7441 18.6141 9.7252C18.6141 9.59053 18.6141 9.46295 18.607 9.32828C19.2024 8.903 19.7128 8.36432 20.1239 7.74767Z" fill="#FBFBFB"/>
</svg>
