<svg width="57" height="38" viewBox="0 0 57 38" fill="none" xmlns="http://www.w3.org/2000/svg">
<g clip-path="url(#clip0_273_383)">
<path d="M55.7411 5.92695C55.4142 4.78136 54.7765 3.73697 53.8914 2.89777C53.0063 2.05857 51.9049 1.45384 50.6966 1.1438C46.2734 0 28.4711 0 28.4711 0C28.4711 0 10.6679 0.0346221 6.24466 1.17842C5.03642 1.48848 3.93492 2.09324 3.04986 2.93248C2.16481 3.77172 1.52707 4.81616 1.20016 5.96178C-0.137781 13.4136 -0.656793 24.7684 1.2369 31.9221C1.56384 33.0677 2.20159 34.1121 3.08665 34.9513C3.9717 35.7905 5.07318 36.3952 6.2814 36.7053C10.7047 37.8491 28.5074 37.8491 28.5074 37.8491C28.5074 37.8491 46.3099 37.8491 50.7329 36.7053C51.9412 36.3953 53.0427 35.7905 53.9278 34.9513C54.8129 34.1121 55.4507 33.0677 55.7777 31.9221C57.1889 24.4598 57.6237 13.1119 55.7411 5.92695Z" fill="#FF0000"/>
<path d="M22.8052 27.0353L37.5735 18.9248L22.8052 10.8143V27.0353Z" fill="white"/>
</g>
<defs>
<clipPath id="clip0_273_383">
<rect width="57" height="38" fill="white"/>
</clipPath>
</defs>
</svg>
